[URL=http://imageshack.us/photo/my-images/850/spideybanner3.jpg/][IMG]http://img850.imageshack.us/img850/701/spideybanner3.jpg[/IMG][/URL]

6 6 "Why I Hate Gym" TBA Man of Action & Joe Fallon April 29, 2012 106 
Taskmaster goes undercover and infiltrates Peter's school to seek out Spider-Man. Peter and White Tiger must put their 
differences aside and work together in order to save their friends from a foe capable of duplicating their physical fighting skills.
Introducing characters: Taskmaster  

Format                           : Matroska
File size                        : 590 MiB
Duration                         : 22mn 8s
Overall bit rate                 : 3 728 Kbps
Encoded date                     : UTC 2012-04-30 08:27:16
Writing application              : mkvmerge v5.5.0 ('Healer') built on Apr  6 2012 21:43:24
Writing library                  : libebml v1.2.3 + libmatroska v1.3.0

Video
ID                               : 1
Format                           : AVC
Format/Info                      : Advanced Video Codec
Format profile                   : High@L3.1
Format settings, CABAC           : No
Format settings, ReFrames        : 2 frames
Muxing mode                      : Header stripping
Codec ID                         : V_MPEG4/ISO/AVC
Duration                         : 22mn 8s
Bit rate                         : 3 270 Kbps
Width                            : 1 280 pixels
Height                           : 720 pixels
Display aspect ratio             : 16:9
Frame rate                       : 23.976 fps
Color space                      : YUV
Chroma subsampling               : 4:2:0
Bit depth                        : 8 bits
Scan type                        : Progressive
Bits/(Pixel*Frame)               : 0.148
Stream size                      : 518 MiB (88%)
Language                         : English
Color primaries                  : BT.709-5, BT.1361, IEC 61966-2-4, SMPTE RP177
Transfer characteristics         : BT.709-5, BT.1361
Matrix coefficients              : BT.709-5, BT.1361, IEC 61966-2-4 709, SMPTE RP177

Audio
ID                               : 2
Format                           : AC-3
Format/Info                      : Audio Coding 3
Mode extension                   : CM (complete main)
Muxing mode                      : Header stripping
Codec ID                         : A_AC3
Duration                         : 22mn 8s
Bit rate mode                    : Constant
Bit rate                         : 384 Kbps
Channel(s)                       : 6 channels
Channel positions                : Front: L C R, Side: L R, LFE
Sampling rate                    : 48.0 KHz
Bit depth                        : 16 bits
Compression mode                 : Lossy
Stream size                      : 60.8 MiB (10%)
Language                         : English

[URL=http://img688.imageshack.us/i/ultimatespidermans01e06.jpg/][IMG]http://img688.imageshack.us/img688/5966/ultimatespidermans01e06.jpg[/IMG][/URL]